# xmcd CD database file
#
# Track frame offsets:
#	150
#	14617
#	24932
#	43055
#	57690
#	73305
#	83957
#	94867
#	113282
#	124722
#
# Disc length: 1861 seconds
#
# Revision: 0
# Processed by: cddbd v1.4PL0 Copyright (c) Steve Scherf et al.
# Submitted via: CDex 1.51
#
DISCID=8407430a
DTITLE=Various Artist - Pickin' On Christmas
DYEAR=1997
DGENRE=Country
TTITLE0=Twelve Days Of Christmas
TTITLE1=Sleigh Ride
TTITLE2=Jingle Bells
TTITLE3=O Come All Ye Faithful
TTITLE4=Silver Bells
TTITLE5=Let It Snow
TTITLE6=Santa Claus Is Coming To Town
TTITLE7=White Christmas
TTITLE8=Jingle Bell Rock
TTITLE9=We Wish You A Merry Christmas
EXTD=YEAR: 1997
EXTT0=
EXTT1=
EXTT2=
EXTT3=
EXTT4=
EXTT5=
EXTT6=
EXTT7=
EXTT8=
EXTT9=
PLAYORDER=
